<svg xmlns="http://www.w3.org/2000/svg" width="2208" height="1242" fill="none"><g clip-path="url(#a)"><path fill="url(#b)" d="M0 0h2208v1242H0z"/><path fill="#BBB" fill-opacity=".4" d="M2251.66-161.432 1990.68 99.381 2143 251.814 2403.97-9z"/><path stroke="#E0E0E0" stroke-opacity=".6" d="m1991.39 99.382 260.27-260.107L2403.27-9 2143 251.107z"/><path fill="#BBB" fill-opacity=".4" d="m1489.23 763.474 762.41 762.376L2404 1373.47l-691.21-691.302 156.29-156.34-152.65-152.145-227.16 227.375a114.94 114.94 0 0 0-33.61 81.2 114.92 114.92 0 0 0 33.57 81.216"/><path stroke="#E0E0E0" stroke-opacity=".6" d="m1716.43 374.39 151.94 151.439-155.93 155.986-.35.353.35.354 690.85 690.948-151.65 151.67-762.05-762.019a114.4 114.4 0 0 1-33.43-80.863 114.47 114.47 0 0 1 33.46-80.847z"/><path fill="#fff" fill-opacity=".3" d="m1418.44-39.735 804.74 804.707L2384 604.129l-729.59-729.685 164.96-165.021-161.12-160.594-239.77 240.001a121.3 121.3 0 0 0-35.48 85.709 121.33 121.33 0 0 0 35.44 85.726M774.2-269 498.73 6.296l160.774 160.897 275.469-275.296zM-30.563 707.265 774.18 1511.97 935 1351.13 205.413 621.444l164.961-165.021-161.122-160.594L-30.523 535.83A121.32 121.32 0 0 0-66 621.539a121.33 121.33 0 0 0 35.437 85.726"/><path fill="#BBB" fill-opacity=".4" d="M-13.324 1373.62 139.035 1526l262.169-259.95-152.589-152.19z"/><path stroke="#E0E0E0" stroke-opacity=".6" d="m400.495 1266.05-261.459 259.24-151.652-151.67 261.23-259.05z"/><path fill="#BBB" fill-opacity=".4" d="M677.976 682.169 521.923 838.234 674.109 990.85l227.352-227.375a114.94 114.94 0 0 0 33.65-81.267 114.94 114.94 0 0 0-33.65-81.267L139.187-161.51-13.229-9.09z"/><path stroke="#E0E0E0" stroke-opacity=".6" d="m678.329 682.522.354-.353-.354-.354L-12.522-9.09l151.709-151.713 761.921 762.097a114.44 114.44 0 0 1 33.503 80.914 114.44 114.44 0 0 1-33.503 80.913L674.11 990.143 522.629 838.235z"/><path stroke="#E0E0E0" stroke-opacity=".9" d="M959.432 24.77 1060.53-76.262l58.71 58.754-101.1 101.032zM849.974 252.459l269.276 269.31-58.73 58.735-297.046-297.036a44.34 44.34 0 0 1 .014-62.649l88.259-88.342 58.836 58.643-60.609 60.632-.354.353zm61.017 227.406L809.434 580.564l-58.725-58.734 101.468-100.623z"/><path stroke="#E0E0E0" stroke-opacity=".9" d="m1020.02 252.459.35-.354-.35-.353L750.742-17.544l58.748-58.749 297 297.066a44.344 44.344 0 0 1 0 62.695l-88.34 88.341-58.655-58.825z"/><path stroke="#fff" stroke-opacity=".5" d="m1371.43 919.77 101.1-101.032 58.71 58.754-101.1 101.032zm-109.46 227.69 269.28 269.31-58.73 58.73-297.05-297.03a44.38 44.38 0 0 1-12.95-31.33 44.36 44.36 0 0 1 12.97-31.32l88.26-88.34 58.83 58.64-60.61 60.63-.35.36z"/><path stroke="#fff" stroke-opacity=".5" d="m1432.02 1147.46.35-.35-.35-.36-269.28-269.294 58.75-58.749 297 297.063a44.36 44.36 0 0 1 12.98 31.35c0 11.76-4.67 23.03-12.98 31.35l-88.34 88.34-58.65-58.83z"/><path stroke="#E0E0E0" d="m1342.13 762.228 713.13 713.232-156.56 156.58-786.63-786.592a118.13 118.13 0 0 1-34.51-83.481c.01-31.3 12.43-61.319 34.55-83.464l234.13-234.351 156.86 156.343-160.97 161.026-.35.353zm162.05 602.342-269.91 267.63-156.56-156.59 269.67-267.42z"/><path stroke="#E0E0E0" d="m1790.93 762.228.35-.354-.35-.354L1077.8 48.333l156.62-156.626 786.49 786.674a118.15 118.15 0 0 1 34.59 83.533c0 31.33-12.44 61.377-34.59 83.533L1786.59 1079.8 1630.2 922.971z"/></g><defs><linearGradient id="b" x1="1104" x2="2707.5" y1="0" y2="2491.5" gradientUnits="userSpaceOnUse"><stop stop-color="#fff"/><stop offset="1" stop-color="#999"/></linearGradient><clipPath id="a"><path fill="#fff" d="M0 0h2208v1242H0z"/></clipPath></defs></svg>